<svg width="44" height="44" viewBox="0 0 44 44" fill="none" xmlns="http://www.w3.org/2000/svg">
<path fill-rule="evenodd" clip-rule="evenodd" d="M3.10791 32.7047L0 43.9984L11.6139 40.9687C14.826 42.7099 18.425 43.6223 22.0823 43.6227H22.0918C34.1658 43.6227 43.9945 33.8404 44 21.8196C44.0012 18.9547 43.4355 16.1175 42.335 13.4703C41.2346 10.8231 39.6211 8.41765 37.5866 6.39139C35.5521 4.36512 33.1365 2.75776 30.4779 1.6611C27.8192 0.564449 24.9696 0 22.0918 0C10.0162 0 0.189074 9.78004 0.18356 21.8031C0.178934 25.6297 1.1876 29.3899 3.10791 32.7047ZM15.3855 11.7545C15.7747 11.7702 16.2064 11.7882 16.6169 12.6956H16.6145C16.8941 13.3146 17.364 14.4672 17.7393 15.3879C18.0174 16.0702 18.2436 16.6251 18.302 16.741C18.4391 17.0131 18.5304 17.3323 18.3477 17.6955C18.3191 17.7522 18.2928 17.8057 18.2677 17.8566C18.1323 18.1317 18.0322 18.335 17.8009 18.6037C17.7088 18.7106 17.6136 18.8259 17.5184 18.9412C17.3303 19.1689 17.1425 19.3964 16.9792 19.5589C16.7051 19.8303 16.4191 20.1244 16.739 20.6703C17.0588 21.2161 18.157 22.9996 19.7846 24.4442C21.5387 26.0016 23.0593 26.657 23.8293 26.9889C23.9771 27.0527 24.0973 27.1045 24.1861 27.1485C24.7376 27.4214 25.0535 27.3806 25.3742 27.0167C25.6948 26.6528 26.7418 25.4254 27.1073 24.8803C27.4729 24.3352 27.8376 24.4254 28.3395 24.6074C28.8413 24.7893 31.5325 26.1085 32.08 26.3806C32.1829 26.4318 32.2793 26.4782 32.369 26.5214C32.7566 26.708 33.018 26.8339 33.1294 27.0167C33.2664 27.2418 33.2649 28.3351 32.8095 29.6048C32.3542 30.8746 30.1199 32.102 29.1155 32.193C29.0189 32.2017 28.923 32.213 28.8243 32.2245C27.8962 32.3332 26.726 32.4702 22.5467 30.8291C17.3997 28.8065 14.0073 23.799 13.3111 22.7713C13.2546 22.688 13.2159 22.6308 13.1954 22.6035L13.1893 22.5955C12.8944 22.203 10.9604 19.6294 10.9604 16.9676C10.9604 14.4579 12.1999 13.1422 12.7698 12.5373C12.8086 12.4961 12.8443 12.4582 12.8763 12.4235C13.0591 12.2156 13.2832 12.0476 13.5345 11.9302C13.7857 11.8127 14.0587 11.7484 14.3361 11.7412L14.3908 11.7412C14.7373 11.7411 15.0816 11.7411 15.3855 11.7545Z" fill="#393939"/>
</svg>
