<svg width="44" height="44" viewBox="0 0 44 44" fill="none" xmlns="http://www.w3.org/2000/svg">
<path d="M12.8297 0C5.75487 0 0 5.76026 0 12.8368V31.1703C0 38.2451 5.76025 44 12.837 44H31.1703C38.2451 44 44 38.2397 44 31.163V12.8297C44 5.75487 38.2397 0 31.163 0H12.8297ZM34.8333 7.33325C35.8453 7.33325 36.6667 8.15451 36.6667 9.16651C36.6667 10.1785 35.8453 11 34.8333 11C33.8213 11 33 10.1785 33 9.16651C33 8.15451 33.8213 7.33325 34.8333 7.33325ZM22 11C28.0664 11 33 15.9334 33 22C33 28.0664 28.0664 33 22 33C15.9334 33 11 28.0664 11 22C11 15.9334 15.9334 11 22 11ZM22 14.6665C20.0551 14.6665 18.1898 15.4393 16.8146 16.8146C15.4393 18.1898 14.6667 20.0551 14.6667 22C14.6667 23.9449 15.4393 25.8102 16.8146 27.1854C18.1898 28.5607 20.0551 29.3333 22 29.3333C23.9449 29.3333 25.8102 28.5607 27.1854 27.1854C28.5607 25.8102 29.3333 23.9449 29.3333 22C29.3333 20.0551 28.5607 18.1898 27.1854 16.8146C25.8102 15.4393 23.9449 14.6665 22 14.6665Z" fill="#393939"/>
</svg>
