<svg width="44" height="44" viewBox="0 0 44 44" fill="none" xmlns="http://www.w3.org/2000/svg">
<path d="M22 0C34.1504 0 44 9.84956 44 21.9999C44 34.1504 34.1504 44 22 44C9.84957 44 0 34.1504 0 21.9999C0 9.84956 9.84957 0 22 0ZM29.5891 30.9677C29.9933 29.7265 31.89 17.3526 32.1236 14.9143C32.1942 14.1753 31.9613 13.6849 31.504 13.4659C30.9513 13.2 30.1326 13.333 29.182 13.6758C27.8795 14.1451 11.2246 21.2172 10.2621 21.626C9.35005 22.0138 8.48645 22.4363 8.48645 23.0487C8.48645 23.4796 8.74216 23.7215 9.44629 23.9727C10.1787 24.2338 12.024 24.7931 13.1138 25.0938C14.1635 25.3833 15.3579 25.1323 16.0271 24.716C16.7365 24.2752 24.9278 18.7945 25.5154 18.3142C26.1029 17.8338 26.5713 18.4487 26.091 18.93C25.6107 19.4103 19.9888 24.8673 19.2472 25.6227C18.347 26.5403 18.986 27.4909 19.5901 27.8713C20.2795 28.3058 25.2395 31.6323 25.9865 32.1657C26.7336 32.6994 27.4907 32.9412 28.1847 32.9412C28.8786 32.9412 29.2433 32.0284 29.5891 30.9677Z" fill="#393939"/>
</svg>
