<svg width="29" height="29" viewBox="0 0 29 29" fill="none" xmlns="http://www.w3.org/2000/svg">
<path fill-rule="evenodd" clip-rule="evenodd" d="M2.83085 21.0621L0.867188 28.1978L8.20515 26.2836C10.2346 27.3837 12.5086 27.9602 14.8194 27.9604H14.8254C22.454 27.9604 28.6641 21.7797 28.6675 14.1846C28.6683 12.3745 28.3109 10.5819 27.6156 8.90934C26.9203 7.23675 25.9008 5.71693 24.6154 4.43668C23.3299 3.15644 21.8037 2.14086 20.1239 1.44797C18.4441 0.755071 16.6436 0.398437 14.8254 0.398438C7.1957 0.398438 0.98665 6.57772 0.983165 14.1742C0.980243 16.592 1.61755 18.9677 2.83085 21.0621ZM10.5861 7.82346C10.832 7.83337 11.1048 7.84477 11.3641 8.4181H11.3626C11.5393 8.80915 11.8362 9.53742 12.0733 10.1191C12.2491 10.5502 12.392 10.9009 12.4288 10.9741C12.5155 11.146 12.5732 11.3477 12.4577 11.5771C12.4397 11.613 12.423 11.6467 12.4072 11.6789C12.3216 11.8527 12.2584 11.9812 12.1123 12.1509C12.0541 12.2185 11.9939 12.2914 11.9338 12.3642C11.8149 12.5081 11.6962 12.6518 11.5931 12.7545C11.4199 12.926 11.2392 13.1118 11.4413 13.4567C11.6434 13.8016 12.3373 14.9284 13.3656 15.8412C14.4739 16.8251 15.4346 17.2393 15.9211 17.449C16.0145 17.4893 16.0905 17.522 16.1466 17.5498C16.495 17.7222 16.6946 17.6964 16.8972 17.4665C17.0998 17.2366 17.7613 16.4611 17.9923 16.1167C18.2233 15.7723 18.4537 15.8293 18.7708 15.9442C19.0879 16.0592 20.7882 16.8927 21.1342 17.0646C21.1992 17.097 21.2601 17.1263 21.3167 17.1536C21.5616 17.2715 21.7268 17.351 21.7972 17.4665C21.8838 17.6087 21.8828 18.2995 21.5951 19.1018C21.3074 19.904 19.8957 20.6796 19.2611 20.737C19.2001 20.7426 19.1395 20.7497 19.0771 20.757C18.4907 20.8256 17.7514 20.9122 15.1108 19.8753C11.8587 18.5974 9.71535 15.4335 9.27545 14.7842C9.23979 14.7315 9.21532 14.6954 9.20237 14.6782L9.19854 14.6731C9.01218 14.4251 7.79022 12.799 7.79022 11.1173C7.79022 9.53153 8.5734 8.70027 8.93348 8.31808C8.958 8.29206 8.98056 8.26811 9.00077 8.24615C9.11628 8.11478 9.25786 8.00865 9.4166 7.93445C9.57535 7.86025 9.74781 7.81959 9.92312 7.81504L9.95769 7.81504C10.1766 7.81501 10.3942 7.81499 10.5861 7.82346Z" fill="white"/>
</svg>
