<svg width="28" height="28" viewBox="0 0 28 28" fill="none" xmlns="http://www.w3.org/2000/svg">
<path d="M14 0C21.7321 0 28 6.2679 28 13.9999C28 21.7321 21.7321 28 14 28C6.26791 28 0 21.7321 0 13.9999C0 6.2679 6.26791 0 14 0ZM18.8294 19.7067C19.0867 18.9169 20.2936 11.0425 20.4423 9.4909C20.4872 9.02067 20.339 8.7086 20.048 8.56923C19.6963 8.40001 19.1753 8.48462 18.5704 8.70277C17.7415 9.00145 7.14291 13.5019 6.53044 13.762C5.95003 14.0088 5.40047 14.2776 5.40047 14.6673C5.40047 14.9415 5.56319 15.0955 6.01128 15.2554C6.47736 15.4215 7.65164 15.7774 8.34517 15.9688C9.01314 16.153 9.7732 15.9933 10.1991 15.7284C10.6505 15.4479 15.8631 11.9601 16.2371 11.6545C16.6109 11.3488 16.909 11.7401 16.6034 12.0463C16.2977 12.352 12.7202 15.8246 12.2482 16.3053C11.6753 16.8893 12.082 17.4942 12.4664 17.7363C12.9051 18.0128 16.0615 20.1296 16.5368 20.4691C17.0123 20.8087 17.4941 20.9626 17.9357 20.9626C18.3773 20.9626 18.6094 20.3817 18.8294 19.7067Z" fill="white"/>
</svg>
