<svg width="45" height="46" viewBox="0 0 45 46" fill="none" xmlns="http://www.w3.org/2000/svg">
<mask id="mask0_2288_3550" style="mask-type:alpha" maskUnits="userSpaceOnUse" x="0" y="0" width="45" height="46">
<rect y="0.570312" width="45" height="45" rx="22.5" fill="#848484"/>
</mask>
<g mask="url(#mask0_2288_3550)">
<path d="M0 0.570312H45V45.5703H0" fill="#EE1C25"/>
<path d="M13.2988 7.21484L17.2332 19.4257L6.93262 11.879H19.6649L9.36427 19.4257" fill="#FFFF00"/>
<path d="M25.3278 5.14205L24.9553 9.40528L22.7717 5.73542L26.6773 7.41015L22.5414 8.37025" fill="#FFFF00"/>
<path d="M30.5196 10.1492L28.5356 13.9326L27.9354 9.69581L30.8905 12.7677L26.7092 12.0341" fill="#FFFF00"/>
<path d="M31.0148 17.6898L27.6729 20.3279L28.8388 16.2128L30.2942 20.2331L26.7734 17.8433" fill="#FFFF00"/>
<path d="M25.2434 20.8526L25.0464 25.1278L22.7139 21.5524L26.685 23.0624L22.5921 24.1946" fill="#FFFF00"/>
</g>
</svg>
