<svg width="45" height="46" viewBox="0 0 45 46" fill="none" xmlns="http://www.w3.org/2000/svg">
<mask id="mask0_2288_3530" style="mask-type:alpha" maskUnits="userSpaceOnUse" x="0" y="0" width="45" height="46">
<rect y="0.140625" width="45" height="45" rx="22.5" fill="#848484"/>
</mask>
<g mask="url(#mask0_2288_3530)">
<path d="M-13.6885 1.60547V43.6761H58.4326V1.60547H-13.6885Z" fill="#012169"/>
<path d="M-13.6885 1.60547L58.4326 43.6761L-13.6885 1.60547ZM58.4326 1.60547L-13.6885 43.6761L58.4326 1.60547Z" fill="black"/>
<path fill-rule="evenodd" clip-rule="evenodd" d="M13.9612 22.639L-15.915 5.21115L-11.4623 -2.00391L22.3719 17.7327L56.2061 -2.00391L60.6588 5.21115L30.7826 22.639L60.6588 40.0667L56.2061 47.2818L22.3719 27.5452L-11.4623 47.2818L-15.915 40.0667L13.9612 22.639Z" fill="white"/>
<mask id="mask1_2288_3530" style="mask-type:luminance" maskUnits="userSpaceOnUse" x="-14" y="1" width="73" height="43">
<path d="M22.3711 22.6408H58.4317V43.6761L22.3711 22.6408ZM22.3711 22.6408V43.6761H-13.6895L22.3711 22.6408ZM22.3711 22.6408H-13.6895V1.60547L22.3711 22.6408ZM22.3711 22.6408V1.60547H58.4317L22.3711 22.6408Z" fill="white"/>
</mask>
<g mask="url(#mask1_2288_3530)">
<path d="M-13.6895 1.60547L58.4317 43.6761L-13.6895 1.60547ZM58.4317 1.60547L-13.6895 43.6761L58.4317 1.60547Z" fill="black"/>
<path fill-rule="evenodd" clip-rule="evenodd" d="M16.7638 22.6435L-15.1738 4.01316L-12.2053 -0.796875L22.371 19.3726L56.9473 -0.796875L59.9158 4.01316L27.9781 22.6435L59.9158 41.2738L56.9473 46.0838L22.371 25.9143L-12.2053 46.0838L-15.1738 41.2738L16.7638 22.6435Z" fill="#C8102E"/>
</g>
<path d="M-15.1299 17.0353H16.6034V0.207031H28.1428V17.0353H59.8761V28.2541H28.1428V45.0824H16.6034V28.2541H-15.1299V17.0353Z" fill="#C8102E"/>
<path fill-rule="evenodd" clip-rule="evenodd" d="M15.1591 -1.19922H29.5833V15.629H61.3166V29.6526H29.5833V46.4809H15.1591V29.6526H-16.5742V15.629H15.1591V-1.19922ZM18.0439 -0.537366V18.4338H-13.6894V26.8479H18.0439V45.819H26.6985V26.8479H58.4317V18.4338H26.6985V-0.537366H18.0439Z" fill="white"/>
</g>
</svg>
