<svg width="23" height="23" viewBox="0 0 23 23" fill="none" xmlns="http://www.w3.org/2000/svg">
<path d="M6.70646 0.398438C3.00823 0.398438 0 3.27857 0 6.81682V15.9836C0 19.521 3.01104 22.3984 6.71025 22.3984H16.2935C19.9918 22.3984 23 19.5183 23 15.9799V6.81331C23 3.27587 19.989 0.398438 16.2897 0.398438H6.70646ZM18.2083 4.06506C18.7373 4.06506 19.1667 4.47569 19.1667 4.98169C19.1667 5.48769 18.7373 5.89844 18.2083 5.89844C17.6793 5.89844 17.25 5.48769 17.25 4.98169C17.25 4.47569 17.6793 4.06506 18.2083 4.06506ZM11.5 5.89844C14.6711 5.89844 17.25 8.36513 17.25 11.3984C17.25 14.4316 14.6711 16.8984 11.5 16.8984C8.32881 16.8984 5.75 14.4316 5.75 11.3984C5.75 8.36513 8.32881 5.89844 11.5 5.89844ZM11.5 7.73169C10.4833 7.73169 9.5083 8.1181 8.78943 8.80571C8.07055 9.49333 7.66671 10.426 7.66671 11.3984C7.66671 12.3709 8.07055 13.3035 8.78943 13.9912C9.5083 14.6788 10.4833 15.0651 11.5 15.0651C12.5166 15.0651 13.4917 14.6788 14.2106 13.9912C14.9294 13.3035 15.3333 12.3709 15.3333 11.3984C15.3333 10.426 14.9294 9.49333 14.2106 8.80571C13.4917 8.1181 12.5166 7.73169 11.5 7.73169Z" fill="white"/>
</svg>
