<svg width="705" height="324" viewBox="0 0 705 324" fill="none" xmlns="http://www.w3.org/2000/svg">
<mask id="mask0_1231_1428" style="mask-type:alpha" maskUnits="userSpaceOnUse" x="0" y="0" width="698" height="318">
<rect x="0" y="0" width="698" height="318" rx="15" fill="#333333"/>
</mask>
<g mask="url(#mask0_1231_1428)">
<path opacity="0.1" d="M377 27C377 162.31 267.31 272 132 272C-3.30977 272 -113 162.31 -113 27C-113 -108.31 -3.30977 -218 132 -218C267.31 -218 377 -108.31 377 27Z" fill="black"/>
<path opacity="0.2" d="M308 27C308 124.202 229.202 203 132 203C34.7979 203 -44 124.202 -44 27C-44 -70.2021 34.7979 -149 132 -149C229.202 -149 308 -70.2021 308 27Z" fill="black"/>
<path opacity="0.3" d="M399.432 318.54C408.838 302.525 418.098 286.801 427.211 271.368C436.323 255.789 446.759 238.1 458.517 218.299L522.453 109.977C530.536 96.4368 537.885 83.9885 544.499 72.6322C551.26 61.1303 557.727 50.1379 563.901 39.6552C570.221 29.0268 576.614 18.1801 583.081 7.11494H633.348C626.881 18.1801 620.487 29.0268 614.167 39.6552C607.994 50.1379 601.527 61.1303 594.766 72.6322C588.005 83.9885 580.656 96.4368 572.719 109.977L508.784 218.299C497.025 238.1 486.59 255.789 477.477 271.368C468.365 286.801 459.031 302.525 449.478 318.54H399.432ZM413.762 158.678C396.859 158.678 381.941 155.548 369.007 149.287C356.22 142.881 346.152 133.782 338.803 121.989C331.601 110.195 328 96.1456 328 79.8391C328 64.8429 331.601 51.4483 338.803 39.6552C346.152 27.7165 356.293 18.3257 369.227 11.4828C382.162 4.49426 397.08 1 413.982 1C430.885 1 445.73 4.49426 458.517 11.4828C471.451 18.3257 481.519 27.7165 488.721 39.6552C496.07 51.4483 499.744 64.8429 499.744 79.8391C499.744 96.1456 496.07 110.195 488.721 121.989C481.519 133.782 471.451 142.881 458.517 149.287C445.73 155.548 430.811 158.678 413.762 158.678ZM413.762 123.08C427.578 123.08 438.307 119.295 445.95 111.724C453.593 104.153 457.415 93.6705 457.415 80.2759C457.415 71.977 455.651 64.5517 452.123 58C448.743 51.4483 443.819 46.2797 437.352 42.4943C430.885 38.7088 423.095 36.8161 413.982 36.8161C400.46 36.8161 389.731 40.8927 381.794 49.046C374.004 57.1992 370.109 67.6092 370.109 80.2759C370.109 93.6705 374.004 104.153 381.794 111.724C389.731 119.295 400.387 123.08 413.762 123.08ZM619.238 324C602.188 324 587.197 320.87 574.263 314.609C561.475 308.203 551.407 299.103 544.058 287.31C536.857 275.372 533.256 261.322 533.256 245.161C533.256 230.165 536.857 216.77 544.058 204.977C551.407 193.038 561.549 183.647 574.483 176.805C587.417 169.816 602.335 166.322 619.238 166.322C636.288 166.322 651.206 169.816 663.993 176.805C676.927 183.647 686.995 193.038 694.197 204.977C701.399 216.77 705 230.165 705 245.161C705 261.322 701.399 275.372 694.197 287.31C686.995 299.103 676.927 308.203 663.993 314.609C651.059 320.87 636.141 324 619.238 324ZM619.238 288.402C632.907 288.402 643.563 284.617 651.206 277.046C658.996 269.329 662.891 258.847 662.891 245.598C662.891 237.299 661.127 229.874 657.599 223.322C654.072 216.77 649.075 211.602 642.608 207.816C636.141 204.031 628.351 202.138 619.238 202.138C605.716 202.138 594.987 206.215 587.05 214.368C579.26 222.375 575.365 232.785 575.365 245.598C575.365 258.847 579.26 269.329 587.05 277.046C594.987 284.617 605.716 288.402 619.238 288.402Z" fill="black"/>
</g>
</svg>
