<svg width="74" height="30" viewBox="0 0 74 30" fill="none" xmlns="http://www.w3.org/2000/svg">
<path d="M30.7939 25.3828H33.3549V25.8102H31.2779V26.9845H33.1506V27.4119H31.2779V28.7208H33.4083V29.1481H30.7939V25.3828Z" fill="white"/>
<path d="M33.9775 27.9248H34.4489C34.4489 28.5073 34.8621 28.8539 35.5612 28.8539C36.1708 28.8539 36.5259 28.5864 36.5259 28.1654C36.5259 27.6478 36.0074 27.5624 35.445 27.4706C34.7725 27.3645 34.031 27.1888 34.031 26.3706C34.031 25.6932 34.5463 25.25 35.445 25.25C36.3437 25.25 36.9187 25.7248 36.9234 26.5257H36.4521C36.4521 25.9923 36.0797 25.6773 35.4387 25.6773C34.8354 25.6773 34.5054 25.9385 34.5054 26.3453C34.5054 26.8406 35.0051 26.9324 35.555 27.0179C36.2337 27.1303 37.002 27.2791 37.002 28.1337C37.002 28.8381 36.4678 29.2812 35.5502 29.2812C34.5809 29.2812 33.9775 28.7637 33.9775 27.9248Z" fill="white"/>
<path d="M38.5035 25.8102H37.2686V25.3828H40.2207V25.8102H38.9811V29.1481H38.4987L38.5035 25.8102Z" fill="white"/>
<path d="M41.5831 25.3828H42.2399L43.6334 29.1481H43.1731L42.8589 28.303H40.9578L40.6436 29.1481H40.1738L41.5831 25.3828ZM42.7175 27.9025L41.9319 25.8102H41.8848L41.0992 27.9025H42.7175Z" fill="white"/>
<path d="M44.816 25.8102H43.5811V25.3828H46.5395V25.8102H45.2983V29.1481H44.816V25.8102Z" fill="white"/>
<path d="M47.1074 25.3828H49.6731V25.8102H47.5945V26.9845H49.461V27.4119H47.5945V28.7208H49.7249V29.1481H47.1074V25.3828Z" fill="white"/>
<path d="M4.83582 29.0381V29.1537H4.67871V28.8672C4.72113 28.9242 4.77769 28.9811 4.83582 29.0381Z" fill="white"/>
<path d="M5.21761 16.7753C5.17445 16.8107 5.13352 16.8488 5.09506 16.8893L4.83582 16.5205V17.1536C4.77769 17.2106 4.72113 17.2676 4.67871 17.3245V16.0156L5.21761 16.7753Z" fill="white"/>
<path d="M17.1961 16.1523V17.2745C17.171 17.2444 17.1443 17.2159 17.116 17.1859L17.0343 17.1004V16.6604L16.8473 16.9152L16.7813 16.8503L16.7295 16.8028L17.1961 16.1523Z" fill="white"/>
<path d="M17.1962 28.9062V29.1532H17.0391V29.0709C17.0956 29.0202 17.1482 28.9652 17.1962 28.9062Z" fill="white"/>
<path d="M4.52625 28.7042V29.1553H4.36914V28.5C4.4167 28.5717 4.4692 28.6399 4.52625 28.7042Z" fill="white"/>
<path d="M5.55063 16.4891C5.50363 16.5168 5.45988 16.5497 5.42022 16.5872L4.52625 15.4319V17.4894C4.46969 17.5543 4.41313 17.6192 4.36914 17.6857V14.957L5.55063 16.4891Z" fill="white"/>
<path d="M17.9198 15.1055V18.176L17.8413 18.0652L17.7564 17.9496V15.5755L17.1955 16.3036L16.7808 16.8528L16.7179 16.7942L16.6582 16.7404L17.106 16.1643L17.9198 15.1055Z" fill="white"/>
<path d="M17.9198 28V29.1554H17.7627V28.2295C17.8198 28.1564 17.8723 28.0797 17.9198 28Z" fill="white"/>
<path d="M4.21864 28.3192V29.1549H4.06152V28.0977C4.10394 28.1736 4.1605 28.2448 4.21864 28.3192Z" fill="white"/>
<path d="M5.9369 16.1737C5.91647 16.1911 5.89605 16.2085 5.87405 16.2243C5.85206 16.2401 5.83163 16.2544 5.80963 16.2686L4.21808 14.344V17.8656L4.13324 17.9764L4.05469 18.0824V13.8945L5.9369 16.1737Z" fill="white"/>
<path d="M18.6347 14.0469V19.4092L18.5577 19.2509L18.4713 19.0816V14.5059L17.9198 15.169L17.106 16.1598L16.6346 16.7154L16.5749 16.66L16.5137 16.6062L18.3425 14.4014L18.6347 14.0469Z" fill="white"/>
<path d="M18.6347 26.75V29.1558H18.4775V27.084C18.5385 26.977 18.5911 26.8653 18.6347 26.75Z" fill="white"/>
<path d="M3.90856 27.8909V29.1571H3.7373V27.625C3.76244 27.6693 3.79072 27.7152 3.82057 27.7627C3.85043 27.8102 3.87871 27.8545 3.90856 27.8909Z" fill="white"/>
<path d="M6.4035 15.8575C6.35489 15.8834 6.30863 15.9136 6.26525 15.9477L3.90856 13.257V18.2917C3.852 18.3819 3.79544 18.4627 3.7373 18.5608V12.8281L6.4035 15.8575Z" fill="white"/>
<path d="M19.3579 13V21.7921C19.339 21.6639 19.317 21.5278 19.2888 21.3885C19.2605 21.2492 19.2291 21.1099 19.1961 20.9817V13.4337L18.6352 14.0668L18.3429 14.4023L16.4482 16.5548L16.401 16.5137L16.3193 16.4488L19.3579 13Z" fill="white"/>
<path d="M19.3583 24.3867V29.1523H19.2012V25.1955C19.2342 25.0689 19.264 24.9328 19.2923 24.7919C19.3206 24.651 19.3394 24.5165 19.3583 24.3867Z" fill="white"/>
<path d="M3.59168 27.3813V29.1539H3.43457V27.0742C3.47897 27.1805 3.5315 27.2832 3.59168 27.3813Z" fill="white"/>
<path d="M6.94918 15.5484C6.89457 15.5674 6.84195 15.5918 6.79207 15.6212L3.59168 12.1882V18.8104C3.53512 18.9101 3.47856 19.0161 3.43457 19.1269V11.7656L6.94918 15.5484Z" fill="white"/>
<path d="M20.0723 11.9453V29.1544H19.9152V12.3632L16.1822 16.3406L16.1162 16.2899L16.0518 16.2424L20.0723 11.9453Z" fill="white"/>
<path d="M3.28407 26.7937V29.152H3.12695V26.4297C3.16937 26.5484 3.22751 26.6703 3.28407 26.7937Z" fill="white"/>
<path d="M7.57481 15.2338C7.51825 15.2591 7.46012 15.2828 7.4177 15.3081L3.28407 11.0997V19.409C3.22469 19.5234 3.17223 19.6412 3.12695 19.762V10.6992L3.26521 10.8369L7.57481 15.2338Z" fill="white"/>
<path d="M20.7974 10.8906V29.1554H20.6403V11.2911L15.8877 16.1105L15.8154 16.0598L15.751 16.0139L20.7974 10.8906Z" fill="white"/>
<path d="M2.97437 26.0512V29.155H2.80469V25.5273C2.85339 25.7078 2.90995 25.8803 2.97437 26.0512Z" fill="white"/>
<path d="M8.29734 14.958C8.24078 14.9754 8.18422 14.9991 8.12766 15.0165L2.97437 10.0214V20.1509C2.90995 20.3219 2.85339 20.4944 2.80469 20.6669V9.62891L2.94138 9.76819L8.29734 14.958Z" fill="white"/>
<path d="M21.5119 9.83203V29.154H21.3548V10.2166L15.4976 15.8575L15.4269 15.8084L15.3594 15.7673L21.5119 9.83203Z" fill="white"/>
<path d="M2.65711 24.9518V29.1524H2.5V23.9531C2.52874 24.2894 2.58125 24.6231 2.65711 24.9518Z" fill="white"/>
<path d="M9.15983 14.7257C9.09313 14.7325 9.02732 14.7463 8.96344 14.7668L2.65694 8.93761V21.2354C2.62081 21.3937 2.58624 21.552 2.55639 21.7308C2.52654 21.9097 2.50926 22.0711 2.49512 22.2262V8.5625L2.63338 8.68437L9.15983 14.7257Z" fill="white"/>
<path d="M22.2264 8.77734V29.155H22.0693V9.15403L15.0511 15.5894L14.9709 15.5467L14.8955 15.5119L22.2264 8.77734Z" fill="white"/>
<path d="M10.1743 14.5623L10.0643 14.5733C10.0255 14.5733 9.98624 14.5781 9.94644 14.5876L2.35633 7.86096V29.1551H2.19922V7.49219L10.1743 14.5623Z" fill="white"/>
<path d="M22.9492 7.71875V29.1521H22.7921V8.07803L14.539 15.3238L14.4542 15.2811C14.429 15.27 14.4007 15.2605 14.374 15.251L22.9492 7.71875Z" fill="white"/>
<path d="M11.4194 14.5405C11.3353 14.5326 11.2509 14.5294 11.1665 14.531L2.04294 6.77873V29.1538H1.87012V6.42578L11.4194 14.5405Z" fill="white"/>
<path d="M23.6663 6.66406V29.1547H23.5092V7.01701L13.93 15.0731C13.8758 15.0442 13.8183 15.0218 13.7588 15.0067L23.6663 6.66406Z" fill="white"/>
<path d="M24.3887 5.60871V29.155H24.2316V5.94425L13.2338 14.836C13.0766 14.7949 12.9195 14.7537 12.7624 14.7205L1.7284 5.69892V29.155H1.57129V5.35547L13.0688 14.7537L24.3887 5.60871Z" fill="white"/>
<path d="M25.1032 4.54398V29.1539H24.9414V4.87952L13.2711 13.9581L13.2224 13.9169L1.41378 4.62629V29.1539H1.25195V4.28125L1.38079 4.38888L13.2711 13.746L25.1032 4.54398Z" fill="white"/>
<path d="M25.8259 3.4894V29.155H25.6562V3.81544L13.4816 12.9446L1.10582 3.54638V29.155H0.93457V3.21875L13.4816 12.7389L25.8259 3.4894Z" fill="white"/>
<path d="M26.5423 2.43101V29.1539H26.3789V2.75072L13.6858 11.9369L13.6449 11.9037L0.788397 2.46424V29.1539H0.625V2.14453L0.755403 2.24266L13.6858 11.7391L26.5423 2.43101Z" fill="white"/>
<path d="M27.2575 1.36861V29.1551H27.0941V1.67882L13.8966 10.9299L13.8479 10.8982L0.479209 1.39235V29.1551H0.317383V1.07422L13.8966 10.7336L27.2575 1.36861Z" fill="white"/>
<path d="M27.9802 0.311799V29.154H27.8183V0.614101L14.1087 9.92216L14.06 9.88892L0.171253 0.311799V29.154H0V0L0.130403 0.0902158L14.1087 9.7259L27.9802 0.311799Z" fill="white"/>
<path d="M47.7029 9.95545C48.1715 9.95545 48.5513 9.57279 48.5513 9.10077C48.5513 8.62875 48.1715 8.24609 47.7029 8.24609C47.2343 8.24609 46.8545 8.62875 46.8545 9.10077C46.8545 9.57279 47.2343 9.95545 47.7029 9.95545Z" fill="#FCBD21"/>
<path d="M38.9497 11.3594H41.674V22.5066H40.1689V12.6477H40.0117L37.377 18.4105H35.08L32.4311 12.6477H32.2944V22.5066H30.7939V11.3594H33.5198L36.1546 17.1221H36.3117L38.9497 11.3594Z" fill="white"/>
<path d="M51.9195 21.2166V22.5066H43.4873V11.3594H51.467V12.5717H44.994V16.1661H50.262V17.3801H44.994V21.2166H51.9195Z" fill="white"/>
<path d="M62.3736 22.3989L61.3194 22.5572C60.5071 22.5572 59.7687 22.0729 59.3633 21.1929L58.6705 19.7067C58.5134 19.3269 58.2793 19.1148 58.042 19.0989H55.236V22.5129H53.7324V11.3594H58.6862C59.5903 11.3592 60.4655 11.6806 61.1575 12.2669C61.8494 12.8532 62.3137 13.6668 62.4685 14.5642C62.6233 15.4616 62.4586 16.3852 62.0035 17.1723C61.5483 17.9593 60.832 18.5592 59.9808 18.8663L60.6878 20.449C60.8543 20.8273 61.079 21.0394 61.3162 21.0394H62.3736V22.3989ZM55.236 12.7997V17.6523H58.6846C59.9179 17.6523 61.0177 16.4843 61.0177 15.226C61.0177 13.9677 59.9337 12.7997 58.6846 12.7997H55.236Z" fill="white"/>
<path d="M65.6907 17.4861C65.6907 19.7764 67.0748 21.0346 69.078 21.0346C71.0812 21.0346 72.4952 19.7684 72.4952 17.4861V11.3594H74.0004V17.4861C74.0004 20.9444 71.5918 22.5509 69.0922 22.5509C66.5925 22.5509 64.1855 20.9444 64.1855 17.4861V11.3594H65.6907V17.4861Z" fill="white"/>
</svg>
