<svg width="1890" height="632" viewBox="0 0 1890 632" fill="none" xmlns="http://www.w3.org/2000/svg">
<path d="M746 76C766.435 76 783 58.9868 783 38C783 17.0132 766.435 0 746 0C725.565 0 709 17.0132 709 38C709 58.9868 725.565 76 746 76Z" fill="#ffffff09"/>
<path d="M359.809 137L480 137V629L413.597 629V193.863H406.666L290.426 448.211L189.089 448.211L72.2253 193.863L66.195 193.863V629L0 629L0 137L120.26 137L236.5 391.348H243.431L359.809 137Z" fill="#ffffff09"/>
<path d="M932 572.067V629L560 629V137L912.038 137V190.51L626.471 190.51V349.154L858.875 349.154V402.734L626.471 402.734V572.067L932 572.067Z" fill="#ffffff09"/>
<path d="M1392.33 625.004L1345.93 632C1310.18 632 1277.68 610.591 1259.84 571.691L1229.34 505.994C1222.43 489.202 1212.12 479.827 1201.68 479.127L1078.18 479.127V630.041L1012 630.041V137L1230.03 137C1269.83 136.993 1308.35 151.2 1338.8 177.117C1369.26 203.034 1389.69 238.998 1396.51 278.667C1403.32 318.337 1396.07 359.166 1376.04 393.958C1356.01 428.749 1324.48 455.269 1287.01 468.842L1318.13 538.807C1325.46 555.529 1335.35 564.904 1345.79 564.904H1392.33V625.004ZM1078.18 200.668V415.18L1229.96 415.18C1284.25 415.18 1332.65 363.546 1332.65 307.924C1332.65 252.302 1284.94 200.668 1229.96 200.668L1078.18 200.668Z" fill="#ffffff09"/>
<path d="M1523.4 407.439C1523.4 508.53 1584.47 564.071 1672.84 564.071C1761.22 564.071 1823.6 508.181 1823.6 407.439V137L1890 137V407.439C1890 560.089 1783.74 631 1673.47 631C1563.19 631 1457 560.089 1457 407.439V137L1523.4 137V407.439Z" fill="#ffffff09"/>
</svg>
