<svg width="8" height="8" viewBox="0 0 8 8" fill="none" xmlns="http://www.w3.org/2000/svg">
<path fill-rule="evenodd" clip-rule="evenodd" d="M7.73333 4C7.73333 6.06186 6.06186 7.73333 4 7.73333C1.93814 7.73333 0.266667 6.06186 0.266667 4C0.266667 1.93814 1.93814 0.266667 4 0.266667C6.06186 0.266667 7.73333 1.93814 7.73333 4ZM8 4C8 6.20914 6.20914 8 4 8C1.79086 8 0 6.20914 0 4C0 1.79086 1.79086 0 4 0C6.20914 0 8 1.79086 8 4ZM4.08787 2.27943C4.15052 2.34124 4.22884 2.37214 4.32282 2.37214C4.44812 2.37214 4.55776 2.32579 4.65174 2.23308C4.74572 2.14037 4.79271 2.03531 4.79271 1.91788C4.79271 1.83135 4.76139 1.75719 4.69873 1.69538C4.63608 1.63358 4.55463 1.60268 4.45439 1.60268C4.34161 1.60268 4.23823 1.64594 4.14425 1.73247C4.05027 1.81899 4.00329 1.92097 4.00329 2.0384C4.00329 2.1311 4.03148 2.21145 4.08787 2.27943ZM3.07289 5.94133C3.16687 6.07112 3.32977 6.13601 3.56158 6.13601C3.73701 6.13601 3.89991 6.07421 4.05028 5.9506C4.20064 5.82699 4.33848 5.67248 4.46378 5.48707C4.59536 5.29548 4.70813 5.10388 4.80211 4.91229C4.89609 4.7207 4.97441 4.56001 5.03706 4.43022C5.05586 4.38077 5.06525 4.34369 5.06525 4.31897C5.06525 4.27571 5.04959 4.25408 5.01826 4.25408C4.98067 4.25408 4.94935 4.28498 4.92428 4.34678C4.79271 4.60636 4.64861 4.86903 4.49198 5.13478C4.34161 5.39436 4.18811 5.6045 4.03148 5.76519C3.99389 5.80227 3.93437 5.83935 3.85292 5.87643C3.77147 5.91352 3.69942 5.93206 3.63677 5.93206C3.53652 5.93206 3.46447 5.90425 3.42061 5.84862C3.38302 5.793 3.36422 5.72501 3.36422 5.64467V5.5705C3.36422 5.56432 3.36736 5.54887 3.37362 5.52415C3.37989 5.49943 3.39242 5.44071 3.41121 5.34801C3.41748 5.32329 3.43628 5.27384 3.4676 5.19968L3.52399 5.07916L4.30402 3.27139C4.34788 3.1725 4.36981 3.10452 4.36981 3.06744C4.36981 3.03035 4.34788 2.99945 4.30402 2.97473C4.26643 2.94383 4.20064 2.93147 4.10666 2.93765L3.58978 2.95619C3.60231 2.97473 3.62423 3.00872 3.65556 3.05817C3.68689 3.10143 3.70255 3.15396 3.70255 3.21577C3.70255 3.25285 3.69315 3.29611 3.67436 3.34555L3.04469 4.93083C3.01337 5.01118 2.98517 5.10079 2.96011 5.19968C2.94132 5.29239 2.93192 5.38509 2.93192 5.4778C2.93192 5.65085 2.97891 5.80536 3.07289 5.94133Z" fill="#D7D9D8"/>
</svg>
