<svg width="23" height="23" viewBox="0 0 23 23" fill="none" xmlns="http://www.w3.org/2000/svg">
<path d="M11.5 0.398438C17.8514 0.398438 23 5.32322 23 11.3984C23 17.4737 17.8514 22.3984 11.5 22.3984C5.14864 22.3984 0 17.4737 0 11.3984C0 5.32322 5.14864 0.398438 11.5 0.398438ZM15.467 15.8823C15.6783 15.2617 16.6698 9.07473 16.7919 7.85557C16.8288 7.48611 16.707 7.24091 16.468 7.1314C16.1791 6.99845 15.7511 7.06493 15.2542 7.23633C14.5734 7.471 5.86739 11.0071 5.36429 11.2114C4.88752 11.4054 4.4361 11.6166 4.4361 11.9228C4.4361 12.1382 4.56976 12.2592 4.93784 12.3848C5.32069 12.5154 6.28527 12.795 6.85496 12.9453C7.40365 13.0901 8.02799 12.9646 8.3778 12.7564C8.7486 12.5361 13.0304 9.79569 13.3376 9.55552C13.6447 9.31535 13.8895 9.6228 13.6385 9.86342C13.3874 10.1036 10.4487 12.8321 10.061 13.2098C9.59046 13.6686 9.92449 14.1439 10.2403 14.3341C10.6006 14.5514 13.1934 16.2146 13.5838 16.4813C13.9744 16.7481 14.3702 16.8691 14.7329 16.8691C15.0956 16.8691 15.2863 16.4126 15.467 15.8823Z" fill="white"/>
</svg>
