<svg width="23" height="23" viewBox="0 0 23 23" fill="none" xmlns="http://www.w3.org/2000/svg">
<path fill-rule="evenodd" clip-rule="evenodd" d="M1.61026 16.9449L0 22.7963L6.01736 21.2266C7.68157 22.1287 9.54628 22.6015 11.4412 22.6017H11.4461C17.7018 22.6017 22.7943 17.5333 22.7971 11.3051C22.7978 9.82073 22.5046 8.35077 21.9345 6.9792C21.3643 5.60763 20.5283 4.36132 19.4742 3.31148C18.4201 2.26164 17.1686 1.42884 15.7911 0.860645C14.4136 0.29245 12.9372 0 11.4461 0C5.18957 0 0.0979626 5.0672 0.0951054 11.2966C0.0927088 13.2792 0.615318 15.2274 1.61026 16.9449ZM7.97145 6.08894C8.17308 6.09707 8.39677 6.10642 8.60943 6.57656H8.6082C8.75308 6.89724 8.99652 7.49444 9.19097 7.97146C9.33508 8.32499 9.45229 8.61251 9.48252 8.67253C9.55354 8.81353 9.60089 8.97891 9.50619 9.16706C9.49139 9.19647 9.47776 9.22415 9.46477 9.25055C9.39461 9.39307 9.34276 9.49842 9.22292 9.63761C9.17519 9.69304 9.12586 9.75278 9.07655 9.81249C8.97909 9.93049 8.88175 10.0484 8.79719 10.1325C8.65514 10.2731 8.50697 10.4255 8.67269 10.7083C8.83842 10.9912 9.40741 11.9152 10.2507 12.6637C11.1595 13.4706 11.9473 13.8102 12.3463 13.9822C12.4229 14.0152 12.4852 14.042 12.5312 14.0648C12.8169 14.2062 12.9806 14.1851 13.1467 13.9965C13.3129 13.808 13.8553 13.1721 14.0447 12.8896C14.2341 12.6072 14.4231 12.654 14.6831 12.7482C14.9431 12.8425 16.3375 13.526 16.6211 13.667C16.6744 13.6935 16.7244 13.7175 16.7709 13.7399C16.9717 13.8366 17.1072 13.9018 17.1648 13.9965C17.2359 14.1132 17.235 14.6796 16.9991 15.3375C16.7632 15.9954 15.6056 16.6313 15.0852 16.6785C15.0351 16.683 14.9854 16.6888 14.9343 16.6948C14.4534 16.7511 13.8471 16.8221 11.6818 15.9718C9.01502 14.9239 7.25737 12.3294 6.89664 11.7969C6.8674 11.7538 6.84733 11.7241 6.83671 11.71L6.83358 11.7058C6.68076 11.5025 5.67871 10.1691 5.67871 8.78996C5.67871 7.48961 6.32094 6.80795 6.61621 6.49455C6.63632 6.4732 6.65482 6.45357 6.6714 6.43556C6.76611 6.32783 6.88222 6.2408 7.01239 6.17996C7.14257 6.11911 7.28399 6.08577 7.42775 6.08204L7.45613 6.08203C7.6356 6.08201 7.81402 6.082 7.97145 6.08894Z" fill="white"/>
</svg>
