<svg width="29" height="20" viewBox="0 0 29 20" fill="none" xmlns="http://www.w3.org/2000/svg">
<path fill-rule="evenodd" clip-rule="evenodd" d="M25.658 1.17922C26.8597 1.48255 27.8042 2.37302 28.1258 3.50616C28.7071 5.55792 28.7094 9.8413 28.7094 9.8413C28.7094 9.8413 28.7094 14.1247 28.1258 16.1765C27.8042 17.3096 26.8597 18.2001 25.658 18.5033C23.4822 19.0537 14.7531 19.0537 14.7531 19.0537C14.7531 19.0537 6.02415 19.0537 3.84822 18.5033C2.64653 18.2001 1.70217 17.3096 1.38049 16.1765C0.796875 14.1247 0.796875 9.8413 0.796875 9.8413C0.796875 9.8413 0.796875 5.55792 1.38049 3.50616C1.70217 2.37302 2.64653 1.48255 3.84822 1.17922C6.02415 0.628906 14.7531 0.628906 14.7531 0.628906C14.7531 0.628906 23.4822 0.628906 25.658 1.17922ZM19.2115 9.84211L11.96 13.7896V5.89453L19.2115 9.84211Z" fill="white"/>
</svg>
